#!OML:ASF H:\Terrain\Patient Classification 1\Walking\liu\liu.ASF
:FULLY-SPECIFIED
:DEGREES
388
root 10.409113 18.793499 19.943661 6.487514 -0.271319 -5.559103
lowerback -7.106847 2.717825 1.828464
upperback -0.131885 3.357882 3.668148
thorax 3.741958 1.673199 3.078691
lowerneck -21.163670 -6.832793 -14.639130
upperneck 23.936001 -8.924168 14.662450
head 12.530430 -3.574791 6.473291
rclavicle 0.000000 -0.000000
rhumerus -30.651171 17.990831 -91.444649
rradius 48.050858
rwrist -23.143120
rhand -34.721500 -25.024450
rfingers 7.837522
rthumb -5.311603 -57.941841
lclavicle 0.000000 -0.000000
lhumerus -55.681122 -12.748670 104.937141
lradius 28.847610
lwrist 10.590800
lhand -14.349170 -24.793449
lfingers 7.837522
lthumb 14.355110 7.735464
rfemur 2.577069 5.722156 34.517891
rtibia 16.164940
rfoot -17.476580 6.263895
rtoes -16.294741
lfemur -44.870541 2.929168 -16.954849
ltibia 32.369259
lfoot -15.970790 10.124587
ltoes -13.843720
389
root 10.420058 18.792950 20.100851 6.468638 -0.609881 -5.278141
lowerback -7.322183 2.904429 1.508892
upperback 0.092710 3.618670 3.580401
thorax 4.073630 1.795849 3.211186
lowerneck -21.472990 -6.983163 -14.719541
upperneck 23.851851 -9.067916 14.669930
head 12.587300 -3.634620 6.459563
rclavicle 0.000000 -0.000000
rhumerus -29.752031 17.910641 -91.377556
rradius 47.199791
rwrist -23.277100
rhand -35.526810 -24.216391
rfingers 7.837522
rthumb -6.089193 -57.114861
lclavicle 0.000000 -0.000000
lhumerus -55.658573 -12.882540 105.127327
lradius 28.883362
lwrist 10.896688
lhand -14.222341 -23.781120
lfingers 7.837522
lthumb 14.477429 8.739929
rfemur 3.968514 6.054664 34.161491
rtibia 14.737250
rfoot -16.990929 6.303440
rtoes -15.025229
lfemur -44.889790 2.789490 -17.251080
ltibia 30.771290
lfoot -16.408920 10.377367
ltoes -11.588060
390
root 10.424711 18.781511 20.240110 6.541040 -0.711414 -5.652361
lowerback -7.448793 2.952125 1.719454
upperback 0.137975 3.653749 3.731156
thorax 4.193695 1.815000 3.262743
lowerneck -21.439880 -6.991787 -14.677191
upperneck 23.755159 -9.055497 14.552670
head 12.534170 -3.640142 6.404574
rclavicle -0.000000 -0.000000
rhumerus -29.237780 18.021299 -91.431229
rradius 46.578621
rwrist -23.279192
rhand -36.427380 -25.002230
rfingers 7.837522
rthumb -6.958600 -57.876278
lclavicle -0.000000 -0.000000
lhumerus -55.843697 -12.557819 105.118645
lradius 29.023279
lwrist 10.963084
lhand -14.320900 -23.902891
lfingers 7.837522
lthumb 14.382279 8.624308
rfemur 5.245229 6.526762 34.632401
rtibia 13.188010
rfoot -16.484489 5.980194
rtoes -14.460271
lfemur -45.268517 2.504150 -16.630350
ltibia 29.302679
lfoot -16.469421 10.665941
ltoes -13.399870
391
root 10.435765 18.756870 20.378490 6.599593 -0.811019 -6.342732
lowerback -7.578318 3.026958 2.314103
upperback 0.205745 3.688729 3.948274
thorax 4.357430 1.840707 3.170541
lowerneck -21.436359 -6.915304 -14.663770
upperneck 23.625580 -8.957211 14.628900
head 12.472570 -3.586198 6.443954
rclavicle -0.000000 -0.000000
rhumerus -28.926041 17.929119 -91.468300
rradius 46.249722
rwrist -23.091311
rhand -35.454762 -24.247410
rfingers 7.837522
rthumb -6.019563 -57.147751
lclavicle -0.000000 -0.000000
lhumerus -55.998470 -12.135091 104.980263
lradius 29.201700
lwrist 10.825529
lhand -13.804340 -23.897501
lfingers 7.837522
lthumb 14.880250 8.597204
rfemur 6.579419 6.363280 35.326279
rtibia 11.427020
rfoot -15.929540 6.316266
rtoes -15.647940
lfemur -45.671669 2.038113 -15.483820
ltibia 27.923830
lfoot -16.627050 10.989450
ltoes -18.348991
